{"asset":{"version":"2.0","generator":"THREE.GLTFExporter"},"scenes":[{"name":"default","nodes":[0]}],"scene":0,"nodes":[{"name":"Object 11523","extras":{"data":{"name":"Object 11523","points":[{"name":"Origin","pos":{"x":0,"y":0,"z":0}}],"billboard":{"enabled":false,"y":false},"directional":{"enabled":false,"mode":"cameraAngle","angles":[]},"custom":[],"instances":[{"name":"Object 11523","uuid":"89E7C85F-7384-4F35-98B2-45DA884385FC","parent":null,"pos":{"x":3.735,"y":6,"z":-25.475},"rot":{"x":0,"y":0,"z":0,"order":"XYZ"},"sca":{"x":1,"y":1,"z":1},"custom":[]}]}},"mesh":0}],"bufferViews":[{"buffer":0,"byteOffset":0,"byteLength":3744,"target":34962,"byteStride":12},{"buffer":0,"byteOffset":3744,"byteLength":3744,"target":34962,"byteStride":12},{"buffer":0,"byteOffset":7488,"byteLength":2496,"target":34962,"byteStride":8},{"buffer":0,"byteOffset":9984,"byteLength":624,"target":34963}],"buffers":[{"byteLength":10608,"uri":"data:application/octet-stream;base64,"}],"accessors":[{"bufferView":0,"componentType":5126,"count":312,"max":[3.5529892444610596,4.122303009033203,2],"min":[-2.5,-2,-4],"type":"VEC3"},{"bufferView":1,"componentType":5126,"count":312,"max":[1,1,1],"min":[-1,-0.4472135901451111,-1],"type":"VEC3"},{"bufferView":2,"componentType":5126,"count":312,"max":[0.9375,0.625],"min":[0.125,0.4375],"type":"VEC2"},{"bufferView":3,"componentType":5123,"count":312,"max":[311],"min":[0],"type":"SCALAR"}],"materials":[{"pbrMetallicRoughness":{"metallicFactor":0,"roughnessFactor":1,"baseColorTexture":{"index":0}},"alphaMode":"MASK","alphaCutoff":0.01,"doubleSided":true,"name":"texture_0"}],"textures":[{"sampler":0,"source":0,"name":"texture_0"}],"samplers":[{"magFilter":9728,"minFilter":9728,"wrapS":10497,"wrapT":10497}],"images":[{"mimeType":"image/png","uri":"data:image/png;base64,"}],"meshes":[{"primitives":[{"mode":4,"attributes":{"POSITION":0,"NORMAL":1,"TEXCOORD_0":2},"indices":3,"material":0}]}]}